<svg xmlns="http://www.w3.org/2000/svg" xmlns:xlink="http://www.w3.org/1999/xlink" viewBox="0 0 200 50"><defs><style>.cls-1{isolation:isolate;}.cls-2{fill:#55b476;}.cls-3{fill:url(#linear-gradient);}.cls-4{fill:#00b48b;}.cls-5,.cls-8{fill:#322253;}.cls-6,.cls-8{mix-blend-mode:multiply;}.cls-6{opacity:0.6;}.cls-7{mix-blend-mode:screen;}.cls-8{opacity:0.3;}</style><linearGradient id="linear-gradient" x1="78.14" y1="26.11" x2="62.42" y2="26.11" gradientUnits="userSpaceOnUse"><stop offset="0" stop-color="#00b48b"/><stop offset="0.99" stop-color="#55b476"/></linearGradient></defs><g class="cls-1"><g id="Layer_1" data-name="Layer 1"><path class="cls-2" d="M59.06,25.31a5.53,5.53,0,0,1,.36,6.4,5.85,5.85,0,0,1-2.48,2.06,8.72,8.72,0,0,1-3.77.76H44.51V12.92h8.28a8.87,8.87,0,0,1,3.8.75,5.66,5.66,0,0,1,2.37,2,5.17,5.17,0,0,1,.81,2.83,4.79,4.79,0,0,1-1,3.11,5.79,5.79,0,0,1-2.68,1.83A4.82,4.82,0,0,1,59.06,25.31ZM48.1,22h4.39a4.24,4.24,0,0,0,2.74-.79,2.77,2.77,0,0,0,1-2.29,2.81,2.81,0,0,0-1-2.29,4,4,0,0,0-2.74-.82H48.06Zm7.6,8.79a3,3,0,0,0,1-2.43,3.1,3.1,0,0,0-1.09-2.52,4.26,4.26,0,0,0-2.89-.94H48.06v6.76h4.8A4.28,4.28,0,0,0,55.7,30.82Z"/><path class="cls-3" d="M78.14,17.42V34.59H74.57V32.53a5.63,5.63,0,0,1-2.19,1.67,7.16,7.16,0,0,1-2.88.61A7.79,7.79,0,0,1,65.86,34a6.25,6.25,0,0,1-2.52-2.5,8.13,8.13,0,0,1-.92-4V17.42H66V27a5,5,0,0,0,1.15,3.54,4.11,4.11,0,0,0,3.14,1.23,4.16,4.16,0,0,0,3.17-1.23A5,5,0,0,0,74.57,27V17.42Z"/><path class="cls-4" d="M91.7,17.93a7,7,0,0,1,2.41,2V17.42h3.58V34.85a8.84,8.84,0,0,1-1,4.22A7.2,7.2,0,0,1,93.81,42a9.05,9.05,0,0,1-4.5,1.09,9.81,9.81,0,0,1-5.8-1.63A6.1,6.1,0,0,1,80.88,37H84.4a3.87,3.87,0,0,0,1.73,2.16A5.81,5.81,0,0,0,89.3,40a4.7,4.7,0,0,0,3.47-1.3,5.13,5.13,0,0,0,1.34-3.82V32a7.25,7.25,0,0,1-6,2.85,7.63,7.63,0,0,1-4.11-1.14,8,8,0,0,1-2.93-3.18,9.87,9.87,0,0,1-1.07-4.59,9.48,9.48,0,0,1,1.08-4.58,7.94,7.94,0,0,1,2.93-3.1,7.83,7.83,0,0,1,4.11-1.1A7.71,7.71,0,0,1,91.7,17.93Zm1.67,5a5.08,5.08,0,0,0-8.94-.05,6.14,6.14,0,0,0-.73,3.08,6.47,6.47,0,0,0,.73,3.11,5.11,5.11,0,0,0,1.93,2.06,5.06,5.06,0,0,0,5.1,0,5,5,0,0,0,1.91-2,6.31,6.31,0,0,0,.74-3.1A6.19,6.19,0,0,0,93.37,22.91Z"/><path class="cls-5" d="M114.85,27.3H102.46a4.49,4.49,0,0,0,4.66,4.29A3.94,3.94,0,0,0,111,29.33h3.61A7.19,7.19,0,0,1,111.9,33a7.87,7.87,0,0,1-4.81,1.43,8.37,8.37,0,0,1-4.16-1,7.43,7.43,0,0,1-2.88-3,8.87,8.87,0,0,1-1-4.37,9.09,9.09,0,0,1,1-4.4,7.18,7.18,0,0,1,2.85-2.93,8.53,8.53,0,0,1,4.22-1,8.31,8.31,0,0,1,4.09,1A7,7,0,0,1,114,21.51a8.39,8.39,0,0,1,1,4.16A12.63,12.63,0,0,1,114.85,27.3Zm-3.39-2.7a3.79,3.79,0,0,0-1.32-3,4.72,4.72,0,0,0-3.21-1.12,4.31,4.31,0,0,0-3,1.1,4.58,4.58,0,0,0-1.47,3Z"/><path class="cls-5" d="M122.09,18.38a5.74,5.74,0,0,1,2.89-.69v3.46h-.85a4.11,4.11,0,0,0-3,1,4.74,4.74,0,0,0-1,3.46v8.53h-3.36V18h3.36V20.3A5.21,5.21,0,0,1,122.09,18.38Z"/><path class="cls-5" d="M131.15,13.21h15v3.65H135.21V22h10.68v3.53H135.21v5.3h10.94v3.65h-15ZM186.93,35c4.58,0,7.22-2.2,7.22-5.21,0-2.16-1.51-3.74-4.73-4.46L186,24.62c-2-.37-2.6-.75-2.6-1.45,0-1,1-1.53,2.69-1.53,1.89,0,3.29.5,3.69,2.27h4c-.21-3.29-2.6-5.49-7.41-5.49-4.15,0-7.09,1.71-7.09,5,0,2.3,1.6,3.81,5.08,4.53l3.81.87c1.49.28,1.9.68,1.9,1.3,0,1-1.15,1.6-2.95,1.6-2.29,0-3.63-.5-4.12-2.26h-4c.56,3.24,3,5.44,8,5.44Zm-9.09-4h-3c-.9,0-1.48-.4-1.48-1.23V22.34h4.48V18.78h-4.48v-4.5h-4v4.5h-3v3.56h3v8.4c0,2.11,1.49,3.81,4.19,3.81h4.31V31ZM164.62,18.78V34.55h-4V33.13A7.77,7.77,0,0,1,155.6,35a8.27,8.27,0,0,1-.52-16.54,4.51,4.51,0,0,1,.52,0,7.76,7.76,0,0,1,5.05,1.83V18.78Zm-3.91,7.87a4.79,4.79,0,1,0,0,.07Z"/><path class="cls-5" d="M17.19,4A16.08,16.08,0,0,0,4.81,23.07C6.71,31.69,23.9,47,26.53,46.38S38.35,24.72,36.45,16.1A16.09,16.09,0,0,0,17.19,4Zm4.94,22.38a6.94,6.94,0,1,1,5.38-8.3A7,7,0,0,1,22.13,26.37Z"/><g class="cls-6"><path class="cls-5" d="M17.19,4l-.27.07a16.06,16.06,0,0,1,19,12.17c1.84,8.33-6.71,28.36-9.64,30.16a.84.84,0,0,0,.28,0c2.64-.58,11.82-21.66,9.92-30.28A16.09,16.09,0,0,0,17.19,4Z"/></g><g class="cls-7"><path class="cls-5" d="M18,4a15.73,15.73,0,0,1,3.1-.38A15.86,15.86,0,0,0,17.19,4,16.08,16.08,0,0,0,4.81,23.07C6.71,31.69,23.9,47,26.53,46.38a.58.58,0,0,0,.17-.06c-4-1.2-19.3-15.16-21.08-23.25A16.08,16.08,0,0,1,18,4Z"/></g><path class="cls-8" d="M18.87,11.62a8.16,8.16,0,1,0,9.84,6.19A8.22,8.22,0,0,0,18.87,11.62Zm3.26,14.75a6.94,6.94,0,1,1,5.38-8.3A7,7,0,0,1,22.13,26.37Z"/></g></g></svg>